<?xml version="1.0" encoding="utf-8"?>
<!-- Generator: Adobe Illustrator 15.0.0, SVG Export Plug-In . SVG Version: 6.00 Build 0)  -->
<!DOCTYPE svg PUBLIC "-//W3C//DTD SVG 1.1//EN" "http://www.w3.org/Graphics/SVG/1.1/DTD/svg11.dtd">
<svg version="1.1" id="Layer_1" xmlns="http://www.w3.org/2000/svg" xmlns:xlink="http://www.w3.org/1999/xlink" x="0px" y="0px"
	 width="648.485px" height="648.485px" viewBox="0 0 648.485 648.485" enable-background="new 0 0 648.485 648.485"
	 xml:space="preserve">
<circle fill="#991B1E" cx="324.243" cy="324.243" r="324.243"/>
<g>
	<g>
		<path fill="#FFFFFF" d="M391.918,239.648L321.85,482.666c-3.877,13.9-5.811,23.018-5.811,27.344c0,2.51,1.025,4.844,3.076,7.006
			c2.051,2.169,4.214,3.248,6.494,3.248c3.872,0,7.744-1.709,11.621-5.127c10.254-8.428,22.559-23.697,36.914-45.801l11.621,6.836
			c-34.409,59.932-70.981,89.893-109.717,89.893c-14.815,0-26.607-4.16-35.376-12.477c-8.774-8.314-13.159-18.852-13.159-31.615
			c0-8.428,1.933-19.141,5.811-32.129l47.51-163.379c4.556-15.723,6.836-27.568,6.836-35.547c0-5.009-2.168-9.453-6.494-13.33
			c-4.331-3.872-10.254-5.811-17.773-5.811c-3.418,0-7.52,0.118-12.305,0.342l4.443-13.672l115.869-18.799H391.918z M370.727,82.421
			c14.126,0,26.03,4.903,35.718,14.697c9.683,9.8,14.526,21.651,14.526,35.547c0,13.901-4.902,25.752-14.697,35.547
			c-9.8,9.8-21.65,14.697-35.547,14.697c-13.672,0-25.41-4.897-35.205-14.697c-9.8-9.794-14.697-21.646-14.697-35.547
			c0-13.896,4.839-25.747,14.526-35.547C345.033,87.324,356.825,82.421,370.727,82.421z"/>
	</g>
</g>
<text transform="matrix(1 0 0 1 -67.6973 366.9375)" display="none" font-family="'TimesNewRomanPS-BoldMT'" font-size="700">☺</text>
</svg>
